<svg width="400000" height="400000" xmlns="http://www.w3.org/2000/svg">
    <polygon points="2557588,3710276 2606422,3759110 2557588,3807944 2508754,3759110" style="fill: rgba(0, 0, 0, 0.5); stroke: purple;"></polygon><polygon points="2684220,1590450 2955382,1861612 2684220,2132774 2413058,1861612" style="fill: rgba(0, 0, 0, 0.5); stroke: purple;"></polygon><polygon points="1003382,359586 2589890,1946094 1003382,3532602 -583126,1946094" style="fill: rgba(0, 0, 0, 0.5); stroke: purple;"></polygon><polygon points="2142675,757411 2866805,1481541 2142675,2205671 1418545,1481541" style="fill: rgba(0, 0, 0, 0.5); stroke: purple;"></polygon><polygon points="2796239,1890733 2861250,1955744 2796239,2020755 2731228,1955744" style="fill: rgba(0, 0, 0, 0.5); stroke: purple;"></polygon><polygon points="3890852,654070 5055426,1818644 3890852,2983218 2726278,1818644" style="fill: rgba(0, 0, 0, 0.5); stroke: purple;"></polygon><polygon points="2828862,1831584 2919004,1921726 2828862,2011868 2738720,1921726" style="fill: rgba(0, 0, 0, 0.5); stroke: purple;"></polygon><polygon points="2065247,67669 2581535,583957 2065247,1100245 1548959,583957" style="fill: rgba(0, 0, 0, 0.5); stroke: purple;"></polygon><polygon points="2725804,1908810 2905992,2088998 2725804,2269186 2545616,2088998" style="fill: rgba(0, 0, 0, 0.5); stroke: purple;"></polygon><polygon points="3574367,-753897 5255998,927734 3574367,2609365 1892736,927734" style="fill: rgba(0, 0, 0, 0.5); stroke: purple;"></polygon><polygon points="2939332,2031698 3560004,2652370 2939332,3273042 2318660,2652370" style="fill: rgba(0, 0, 0, 0.5); stroke: purple;"></polygon><polygon points="2495207,3595547 2581201,3681541 2495207,3767535 2409213,3681541" style="fill: rgba(0, 0, 0, 0.5); stroke: purple;"></polygon><polygon points="2878022,1938972 2993731,2054681 2878022,2170390 2762313,2054681" style="fill: rgba(0, 0, 0, 0.5); stroke: purple;"></polygon><polygon points="1539330,2130228 2644618,3235516 1539330,4340804 434042,3235516" style="fill: rgba(0, 0, 0, 0.5); stroke: purple;"></polygon><polygon points="545433,-1014378 2092817,533006 545433,2080390 -1001951,533006" style="fill: rgba(0, 0, 0, 0.5); stroke: purple;"></polygon><polygon points="1828919,3101247 2707964,3980292 1828919,4859337 949874,3980292" style="fill: rgba(0, 0, 0, 0.5); stroke: purple;"></polygon><polygon points="3275749,2368115 3845565,2937931 3275749,3507747 2705933,2937931" style="fill: rgba(0, 0, 0, 0.5); stroke: purple;"></polygon><polygon points="600151,1872479 2588861,3861189 600151,5849899 -1388559,3861189" style="fill: rgba(0, 0, 0, 0.5); stroke: purple;"></polygon><polygon points="2089915,-1066963 3185853,28975 2089915,1124913 993977,28975" style="fill: rgba(0, 0, 0, 0.5); stroke: purple;"></polygon><polygon points="2960422,3380554 3522534,3942666 2960422,4504778 2398310,3942666" style="fill: rgba(0, 0, 0, 0.5); stroke: purple;"></polygon><polygon points="3785103,2555873 5134622,3905392 3785103,5254911 2435584,3905392" style="fill: rgba(0, 0, 0, 0.5); stroke: purple;"></polygon><polygon points="1721958,756956 2042175,1077173 1721958,1397390 1401741,1077173" style="fill: rgba(0, 0, 0, 0.5); stroke: purple;"></polygon><polygon points="2515176,3667864 2598533,3751221 2515176,3834578 2431819,3751221" style="fill: rgba(0, 0, 0, 0.5); stroke: purple;"></polygon><polygon points="2469443,1652449 2926089,2109095 2469443,2565741 2012797,2109095" style="fill: rgba(0, 0, 0, 0.5); stroke: purple;"></polygon><polygon points="1777006,685104 1995994,904092 1777006,1123080 1558018,904092" style="fill: rgba(0, 0, 0, 0.5); stroke: purple;"></polygon><polygon points="2789314,2690228 3415201,3316115 2789314,3942002 2163427,3316115" style="fill: rgba(0, 0, 0, 0.5); stroke: purple;"></polygon><polygon points="3538777,2463063 3770780,2695066 3538777,2927069 3306774,2695066" style="fill: rgba(0, 0, 0, 0.5); stroke: purple;"></polygon><polygon points="2299758,2236226 2771536,2708004 2299758,3179782 1827980,2708004" style="fill: rgba(0, 0, 0, 0.5); stroke: purple;"></polygon><polygon points="2388386,2722098 2900634,3234346 2388386,3746594 1876138,3234346" style="fill: rgba(0, 0, 0, 0.5); stroke: purple;"></polygon>
    </svg>